#!OML:ASF E:/inclinewalkrobotboard/Project1/Captureday1/Session1/subject1.ASF
:FULLY-SPECIFIED
:DEGREES
88
root 0 0 0 -0.3238677068035045 18.97277634008525 10.994142942395674
lowerback -5.755992535408165 -5.297840734540619 -7.589696858682543
upperback -8.742742573281134 -6.681212716237231 6.480293821071543
thorax -5.923396019276963 -2.1448575376149996 11.236261066797647
lowerneck -5.507380012804231 -8.68934936163414 -7.299854405581713
upperneck 29.95048551920003 -11.145883173190693 2.074917362008661
head 11.107698750296255 -5.676546234603887 0.4250610671927001
rclavicle -8.18108945137908E-15 6.239305151315897E-15
rhumerus 154.53677143483839 9.836335435378416 -191.13475135503978
rradius 20.996002070432517
rwrist 76.0812519132813
rhand -16.431213378662143 9.348018961675487
rfingers 7.125019999999995
rthumb 9.768222051232046 -20.191373186097692
lclavicle 3.627186389956814E-15 -2.4028548124200926E-16
lhumerus 68.49676252200263 29.378075881578173 21.212962116020794
lradius 51.638827366243206
lwrist -17.95466994669952
lhand -9.765323150265072 10.084524441125946
lfingers 7.125020000000012
lthumb 16.150401299056647 39.05413006506119
rfemur 162.11951775957135 -217.12296684886297 -185.10832720100996
rtibia 70.4001847783739
rfoot -48.34074263281741 -25.306937984857814
rtoes 51.12084675659261
lfemur -87.42665357815437 17.664349399664875 -62.06474395859789
ltibia 66.95968806489896
lfoot -2.4617190802236166 37.38428936149906
ltoes 3.8741459578415594
89
root 0 0 0 1.611271873344048 20.50421266507919 9.684451139871308
lowerback -6.527516576161755 -5.239692100970762 -7.261449928073798
upperback -9.163962743660196 -6.611825288416856 6.766594595247877
thorax -5.859178770937856 -2.1680192722900653 11.372202760999624
lowerneck -5.284268375338923 -8.805562486306332 -7.49308584208793
upperneck 30.134187648827595 -11.300295842857944 2.0919868987436767
head 11.164743521705715 -5.751636862809614 0.4396977922731038
rclavicle -7.631458980277385E-15 5.9972109206805086E-15
rhumerus 155.39592310152747 9.542309756922755 -190.85741197817336
rradius 21.357035976000983
rwrist 74.93949117831733
rhand -16.39146702470399 9.218657174687285
rfingers 7.125019999999995
rthumb 9.806177965015541 -20.323287946006957
lclavicle 3.581992350738858E-15 -8.198842930924247E-16
lhumerus 68.90725563129105 29.312277067840405 20.914930075276963
lradius 52.34240077367109
lwrist -17.714279984649103
lhand -9.072331049347751 9.876369597924342
lfingers 7.125020000000013
lthumb 16.814031332229384 38.745031559380294
rfemur 162.909187493095 -217.61631060272987 -185.6070796421186
rtibia 70.62655332606343
rfoot -47.443401964812345 -25.49855821239457
rtoes 50.966594380692776
lfemur -87.54965492942438 17.90060222067898 -61.477622657276015
ltibia 67.03043312394595
lfoot -4.2170549525469845 37.45717848636737
ltoes 4.709768781416082
90
root 0 0 0 4.004421782433962 23.133711704250008 8.05548163013646
lowerback -7.386732656206659 -5.146247241856255 -6.856911797283139
upperback -9.644846695391443 -6.491256492101158 7.117339305005853
thorax -5.782008243760647 -2.1785043672931534 11.533879934935193
lowerneck -4.953989888843346 -8.9483159252859 -7.684265553551453
upperneck 30.478508505339974 -11.467233213862018 1.9568898216378459
head 11.264276441734562 -5.84213341067578 0.40519066802561265
rclavicle -7.043581545447738E-15 5.737754605449856E-15
rhumerus 156.4610346808016 9.213054745940756 -190.83254465377576
rradius 21.538187889613205
rwrist 74.16484359430366
rhand -16.371248889681308 9.05761897856215
rfingers 7.125019999999996
rthumb 9.824909767828649 -20.495235056577435
lclavicle 3.5145146557161756E-15 -1.442083000206179E-15
lhumerus 69.82604771020362 29.407466893609925 20.562585073393787
lradius 52.72515202742197
lwrist -17.522339372926822
lhand -8.521619764352488 9.81269252169552
lfingers 7.125020000000013
lthumb 17.342234733299293 38.60798602793379
rfemur 163.52799038835872 -218.04934281346914 -186.1092333924426
rtibia 70.60435750190726
rfoot -46.976554185565746 -25.575932195205407
rtoes 51.06057094070202
lfemur -87.67917789282816 18.2318706985585 -60.78520259561861
ltibia 67.28853026734885
lfoot -5.9520042082250555 37.42668040795094
ltoes 5.55541691019924
91
root 0 0 0 7.007546127211452 27.212449379716848 5.978534528951874
lowerback -8.374444679103002 -5.011515724838471 -6.336216910101635
upperback -10.209280097874734 -6.310387648172563 7.5641293386286
thorax -5.683999096630363 -2.177995600661843 11.733116949078699
lowerneck -4.483901482553852 -9.134107120380037 -7.888492167542964
upperneck 31.02248798446474 -11.661647095329641 1.6368011112184835
head 11.417695061112806 -5.957939119401611 0.3112739218069982
rclavicle -6.42927597878004E-15 5.435050892006021E-15
rhumerus 157.75019464316713 8.824536297081757 -190.99527683263014
rradius 21.570197853442526
rwrist 73.75119028395596
rhand -16.377429778326107 8.873111167034738
rfingers 7.125019999999996
rthumb 9.817698562124676 -20.70007168556942
lclavicle 3.4087838634927292E-15 -2.1487715832370175E-15
lhumerus 71.17018666281763 29.6142617051802 20.133717660880055
lradius 52.93506732294942
lwrist -17.357885940773514
lhand -8.057603093400122 9.84674575854199
lfingers 7.125020000000012
lthumb 17.78836905891407 38.586310368949704
rfemur 163.93160079496676 -218.3699539475963 -186.5655505492781
rtibia 70.36524589479255
rfoot -46.86396502173357 -25.548856195372313
rtoes 51.41656755369599
lfemur -87.81359008703097 18.668830829130556 -59.999784407304865
ltibia 67.7851097108583
lfoot -7.620019980741652 37.27435511191172
ltoes 6.381579643348097
92
root 0 0 0 11.918540511877492 34.94280337175948 2.49647305778546
lowerback -9.87303895935295 -4.772989535987705 -5.436869777717996
upperback -11.087643780214766 -5.982200240159132 8.3186865224929
thorax -5.526175292518244 -2.165627855223457 12.052735512832761
lowerneck -3.6492495542707255 -9.466129468718998 -8.203980525536066
upperneck 32.01522806519017 -11.983843904212472 0.936123619106163
head 11.69315941242073 -6.162021328974062 0.09814250472782537
rclavicle -5.379438399051256E-15 4.912390018641754E-15
rhumerus 160.069524006291 8.071530624311567 -191.49362107003643
rradius 21.324195549752194
rwrist 73.93961819726138
rhand -16.46461317174295 8.566156791232917
rfingers 7.125019999999998
rthumb 9.731149923840348 -21.062164257089478
lclavicle 3.2010503315579074E-15 -3.3689766421895603E-15
lhumerus 74.10155793287883 30.188305848226943 19.3769761501847
lradius 53.01159999153496
lwrist -17.126989117074103
lhand -7.512356855486581 10.030945652346608
lfingers 7.125020000000008
lthumb 18.31530447916355 38.72007705873318
rfemur 163.93886731388497 -218.43999966213465 -187.05509324923045
rtibia 69.51564230365264
rfoot -47.28175579794353 -25.40849529959721
rtoes 52.63274176693362
lfemur -88.00126615020307 19.592418071180294 -58.57845813585922
ltibia 69.11108581003599
lfoot -9.843427083855785 36.705889422093705
ltoes 7.532310225182183
